<?xml version="1.0" encoding="utf-8"?>
<!-- Generator: Adobe Illustrator 19.2.0, SVG Export Plug-In . SVG Version: 6.00 Build 0)  -->
<svg version="1.1" id="图层_1" xmlns="http://www.w3.org/2000/svg" xmlns:xlink="http://www.w3.org/1999/xlink" x="0px" y="0px"
	 viewBox="0 0 200 50" style="enable-background:new 0 0 200 50;" xml:space="preserve">
<style type="text/css">
	.st0{fill:#FA2850;}
	.st1{fill-rule:evenodd;clip-rule:evenodd;fill:#FA2850;}
	.st2{fill:#323232;}
</style>
<g>
	<g>
		<path class="st0" d="M63.5,10.1c-0.3-0.4-0.8-0.6-1.4-0.6c-0.4,0-0.7,0.1-1,0.3c-0.3,0.2-0.5,0.5-0.7,0.8l-8.2,21.4l-7.9-21.4
			c-0.1-0.3-0.3-0.6-0.7-0.8c-0.3-0.2-0.7-0.3-1.2-0.3c-0.6,0-1,0.2-1.3,0.5c-0.3,0.3-0.5,0.8-0.5,1.3c0,0.3,0.1,0.6,0.2,0.8
			c0,0,0.2,0.5,0.5,1.4c0.3,0.9,0.9,2.3,1.6,4.3c0.7,2,1.7,4.5,2.9,7.7c1.2,3.2,2.6,7.1,4.3,11.7c0.1,0.3,0.4,0.7,0.7,1
			c0.3,0.3,0.8,0.5,1.4,0.5c0.6,0,1-0.1,1.3-0.4c0.3-0.3,0.5-0.6,0.7-1.1c2-5,3.5-9.1,4.8-12.4c1.2-3.2,2.2-5.8,2.9-7.7
			c0.7-1.9,1.2-3.2,1.5-4c0.3-0.7,0.4-1.2,0.5-1.2c0.1-0.2,0.2-0.5,0.2-0.7C64.1,10.9,63.9,10.5,63.5,10.1z M90.3,32.9
			c1.9-2.4,3-5.5,3-8.8c0-8-6.5-14.5-14.6-14.5c-8.1,0-14.6,6.5-14.6,14.5c0,8,6.5,14.5,14.6,14.5c3.4,0,6.4-1.1,8.9-3l2.5,2.4
			c0.4,0.4,0.8,0.6,1.3,0.6c0.5,0,1-0.2,1.3-0.6c0.4-0.4,0.6-0.8,0.6-1.3c0-0.5-0.2-1-0.6-1.3L90.3,32.9z M78.7,34.9
			c-6,0-10.9-4.8-10.9-10.8c0-6,4.9-10.8,10.9-10.8c6,0,10.9,4.8,10.9,10.8C89.6,30,84.7,34.9,78.7,34.9z M25.4,9.6
			c-8.1,0-14.6,6.5-14.6,14.5c0,8,6.5,14.5,14.6,14.5c3.4,0,6.4-1.1,8.9-3l2.5,2.4c0.4,0.4,0.8,0.6,1.3,0.6c0.5,0,1-0.2,1.3-0.6
			c0.4-0.4,0.6-0.8,0.6-1.3c0-0.5-0.2-1-0.6-1.3L37,32.9c1.9-2.4,3-5.5,3-8.8C40,16.1,33.4,9.6,25.4,9.6z M25.4,34.9
			c-6,0-10.9-4.8-10.9-10.8c0-6,4.9-10.8,10.9-10.8c6,0,10.9,4.8,10.9,10.8C36.3,30,31.4,34.9,25.4,34.9z M9.1,36.6
			c-1.2,0-2.2-0.4-3-1.2c-0.8-0.8-1.3-1.8-1.3-3l0-1.3V2.1c0-0.5-0.2-1-0.5-1.3C3.9,0.4,3.4,0.3,2.9,0.3c-0.5,0-1,0.2-1.3,0.5
			C1.2,1.2,1,1.6,1,2.1v30.4l0,0c0,1,0.2,2,0.6,2.9c0.4,1,1,1.8,1.7,2.5c0.7,0.7,1.6,1.3,2.6,1.7c1,0.4,2,0.6,3.2,0.6
			c0.5,0,1-0.2,1.3-0.5c0.4-0.4,0.6-0.8,0.6-1.3c0-0.5-0.2-1-0.6-1.3C10.1,36.8,9.6,36.6,9.1,36.6z"/>
	</g>
</g>
<path class="st1" d="M151.2,17.8c0.7,0,1.2,0.6,1.2,1.2v9.9c0,0.7-0.6,1.2-1.2,1.2s-1.2-0.6-1.2-1.2V19
	C150,18.3,150.6,17.8,151.2,17.8z"/>
<path class="st1" d="M146.3,22.7h9.9c0.7,0,1.2,0.6,1.2,1.2s-0.6,1.2-1.2,1.2h-9.9c-0.7,0-1.2-0.6-1.2-1.2S145.6,22.7,146.3,22.7z"
	/>
<path class="st2" d="M97.4,11.3c0-0.5,0.2-1,0.6-1.3c0.4-0.4,0.8-0.5,1.3-0.5c0.5,0,1,0.2,1.3,0.5c0.4,0.4,0.5,0.8,0.5,1.3V12
	c0.7-0.7,1.6-1.3,2.7-1.9c1.1-0.6,2.3-0.8,3.4-0.8c1.7,0,3.3,0.4,4.6,1.1c1.4,0.7,2.5,1.7,3.4,3c0.9-1.2,2.1-2.2,3.5-3
	s2.9-1.1,4.6-1.1c1.4,0,2.7,0.3,3.9,0.8c1.2,0.5,2.3,1.2,3.2,2.1c0.9,0.9,1.6,1.9,2.1,3.1c0.5,1.2,0.8,2.5,0.8,3.9V37
	c0,0.5-0.2,1-0.5,1.3c-0.4,0.4-0.8,0.5-1.3,0.5c-0.5,0-1-0.2-1.3-0.5c-0.4-0.4-0.5-0.8-0.5-1.3V19.2c0-0.8-0.2-1.6-0.5-2.4
	c-0.3-0.7-0.8-1.4-1.3-2c-0.6-0.6-1.2-1-2-1.3c-0.8-0.3-1.6-0.5-2.4-0.5c-0.9,0-1.7,0.2-2.4,0.5c-0.8,0.3-1.4,0.8-2,1.3
	c-0.5,0.6-1,1.2-1.3,2c-0.3,0.7-0.5,1.5-0.5,2.4V37c0,0.5-0.2,1-0.5,1.3c-0.4,0.4-0.8,0.5-1.3,0.5c-0.5,0-1-0.2-1.3-0.5
	c-0.4-0.4-0.5-0.8-0.5-1.3V19.2c-0.1-1.8-0.7-3.2-1.9-4.4c-1.2-1.2-2.6-1.8-4.3-1.8c-1.7,0-3.1,0.6-4.3,1.7
	c-1.2,1.1-1.8,2.5-1.9,4.2v18c0,0.5-0.2,1-0.5,1.3c-0.4,0.4-0.8,0.5-1.3,0.5c-0.5,0-1-0.2-1.3-0.5c-0.4-0.4-0.6-0.8-0.6-1.3V11.3z"
	/>
<path class="st2" d="M162.8,32.8c1.9-2.4,3-5.5,3-8.8c0-8-6.5-14.5-14.6-14.5c-8.1,0-14.6,6.5-14.6,14.5s6.5,14.5,14.6,14.5
	c3.4,0,6.4-1.1,8.9-3l3.8,3.8c0.4,0.4,0.8,0.6,1.3,0.6c0.5,0,1-0.2,1.3-0.6c0.4-0.4,0.6-0.8,0.6-1.3c0-0.5-0.2-1-0.6-1.3L162.8,32.8
	z M151.2,34.8c-6,0-10.9-4.8-10.9-10.8c0-6,4.9-10.8,10.9-10.8c6,0,10.9,4.8,10.9,10.8C162.2,30,157.3,34.8,151.2,34.8z"/>
<path class="st2" d="M169.5,11.3c0-0.5,0.2-1,0.5-1.3c0.4-0.4,0.8-0.5,1.3-0.5c0.5,0,1,0.2,1.3,0.5c0.4,0.4,0.5,0.8,0.5,1.3v3
	c1.3-1.5,3-2.6,4.8-3.5c1.9-0.8,3.9-1.2,6.1-1.2c2.1,0,4,0.4,5.8,1.1c1.8,0.8,3.3,1.8,4.7,3.1c1.3,1.3,2.4,2.9,3.1,4.6
	c0.8,1.8,1.2,3.6,1.2,5.6c0,2-0.4,3.9-1.2,5.7c-0.8,1.8-1.9,3.3-3.2,4.7c-1.3,1.3-2.9,2.4-4.7,3.2c-1.8,0.8-3.6,1.2-5.6,1.2
	c-2.3-0.1-4.4-0.7-6.2-1.7c-1.9-1.1-3.5-2.3-4.8-3.8v14.6c0,0.5-0.2,1-0.5,1.3c-0.4,0.4-0.8,0.5-1.3,0.5c-0.5,0-1-0.2-1.3-0.5
	c-0.4-0.4-0.5-0.8-0.5-1.3V11.3z M173.3,24.1c0,1.6,0.4,3,1,4.3c0.6,1.3,1.4,2.5,2.4,3.4c1,1,2.1,1.7,3.4,2.3
	c1.3,0.5,2.7,0.8,4.2,0.8c1.5,0,2.9-0.3,4.3-0.8c1.3-0.6,2.5-1.3,3.5-2.3c1-1,1.8-2.1,2.3-3.5c0.6-1.3,0.9-2.7,0.9-4.2
	c0-1.5-0.3-2.9-0.9-4.2c-0.6-1.3-1.4-2.5-2.3-3.4c-1-1-2.2-1.8-3.5-2.3c-1.3-0.6-2.8-0.8-4.3-0.8c-1.5,0-2.8,0.3-4.2,0.8
	c-1.3,0.5-2.4,1.3-3.4,2.2c-1,0.9-1.8,2-2.4,3.3c-0.6,1.3-0.9,2.6-1,4.1V24.1z"/>
</svg>
